<svg width="260" height="100" viewBox="0 0 260 100" fill="none" xmlns="http://www.w3.org/2000/svg" xmlns:xlink="http://www.w3.org/1999/xlink">
<path d="M245.127,0.881C252.879,0.881 259.163,7.165 259.163,14.918L259.163,84.848C259.163,92.601 252.879,98.886 245.127,98.886L14.059,98.886C6.307,98.886 0.023,92.601 0.023,84.848L0.023,14.918C0.023,7.165 6.307,0.881 14.059,0.881L245.127,0.881ZM245.127,2.004L14.059,2.004C6.928,2.004 1.146,7.786 1.146,14.918L1.146,84.848C1.146,91.981 6.928,97.763 14.059,97.763L245.127,97.763C252.259,97.763 258.039,91.981 258.039,84.848L258.039,14.918C258.039,7.786 252.259,2.004 245.127,2.004ZM138.23,55.433C140.251,55.433 141.888,56.154 143.14,57.596C144.393,59.038 145.019,60.981 145.019,63.423C145.019,65.866 144.393,67.813 143.14,69.266C141.888,70.719 140.251,71.446 138.23,71.446C136.082,71.446 134.366,70.551 133.082,68.761L133.082,76.878L130.713,76.878L130.713,55.812L133.082,55.812L133.082,58.086C133.65,57.286 134.387,56.643 135.293,56.159C136.198,55.675 137.177,55.433 138.23,55.433ZM120.166,55.433C122.187,55.433 123.824,56.154 125.076,57.596C126.329,59.038 126.955,60.981 126.955,63.423C126.955,65.866 126.329,67.813 125.076,69.266C123.824,70.719 122.187,71.446 120.166,71.446C118.018,71.446 116.302,70.551 115.018,68.761L115.018,76.878L112.649,76.878L112.649,55.812L115.018,55.812L115.018,58.086C115.586,57.286 116.323,56.643 117.229,56.159C118.134,55.675 119.113,55.433 120.166,55.433ZM58.395,35.304C60.257,35.449 64.349,36.228 67.045,40.149L66.731,40.349C65.568,41.121 61.655,44.084 61.709,49.503C61.774,56.935 68.267,59.408 68.342,59.442L68.085,60.212C67.676,61.363 66.763,63.641 65.187,66.029L64.378,67.207C62.476,69.918 60.43,72.407 57.355,72.464C54.043,72.526 52.979,70.513 49.195,70.513C45.411,70.513 44.228,72.401 41.098,72.526C37.848,72.645 35.372,69.293 33.296,66.309C29.048,60.211 25.805,49.073 30.164,41.555C32.324,37.82 36.193,35.458 40.388,35.396C43.58,35.338 46.595,37.533 48.543,37.533C50.394,37.533 53.777,35.164 57.401,35.244L58.395,35.304ZM211.685,55.433C213.937,55.433 215.723,56.206 217.037,57.754C218.353,59.302 219.011,61.255 219.011,63.613L219.011,64.213L206.663,64.213C206.769,65.708 207.317,66.961 208.305,67.971C209.295,68.982 210.579,69.487 212.159,69.487C214.053,69.487 215.623,68.845 216.865,67.561L218.001,69.108C216.443,70.666 214.423,71.446 211.937,71.446C209.663,71.446 207.801,70.703 206.349,69.219C204.895,67.734 204.169,65.803 204.169,63.423C204.169,61.191 204.885,59.302 206.317,57.754C207.749,56.206 209.537,55.433 211.685,55.433ZM183.232,55.433C185.505,55.433 187.332,56.196 188.711,57.722C190.09,59.249 190.779,61.149 190.779,63.423C190.779,65.697 190.085,67.603 188.695,69.14C187.327,70.677 185.505,71.446 183.232,71.446C180.958,71.446 179.131,70.677 177.752,69.14C176.373,67.603 175.684,65.697 175.684,63.423C175.684,61.149 176.373,59.249 177.752,57.722C179.131,56.196 180.958,55.433 183.232,55.433ZM170.126,51.643L170.126,55.812L173.221,55.812L173.221,57.896L170.126,57.896L170.126,67.371C170.126,67.961 170.257,68.435 170.52,68.792C170.784,69.15 171.168,69.329 171.673,69.329C172.368,69.329 172.905,69.119 173.284,68.698L173.979,70.466C173.284,71.119 172.336,71.446 171.136,71.446C170.02,71.446 169.178,71.14 168.61,70.53C168.041,69.919 167.757,69.035 167.757,67.877L167.757,57.896L165.231,57.896L165.231,55.812L167.757,55.812L167.757,51.643L170.126,51.643ZM155.504,49.684C158.641,49.684 161.136,50.664 162.989,52.622L161.41,54.548C159.873,52.864 157.841,52.022 155.315,52.022C154.051,52.022 153.014,52.332 152.204,52.953C151.393,53.574 150.988,54.38 150.988,55.369C150.988,56.106 151.299,56.717 151.92,57.201C152.541,57.686 153.309,58.044 154.225,58.275C155.141,58.507 156.141,58.796 157.225,59.144C158.309,59.491 159.309,59.86 160.225,60.249C161.141,60.639 161.91,61.265 162.531,62.128C163.152,62.992 163.462,64.034 163.462,65.255C163.462,66.982 162.825,68.445 161.552,69.645C160.278,70.845 158.325,71.446 155.694,71.446C152.283,71.446 149.588,70.33 147.609,68.098L149.156,66.108C150.946,68.108 153.157,69.108 155.788,69.108C157.494,69.108 158.746,68.745 159.546,68.019C160.346,67.292 160.746,66.445 160.746,65.476C160.746,64.739 160.515,64.118 160.052,63.613C159.588,63.107 158.994,62.713 158.267,62.428C157.723,62.215 157.13,62.017 156.491,61.833L155.836,61.655C154.941,61.423 154.051,61.165 153.167,60.881C152.283,60.597 151.478,60.254 150.751,59.854C150.025,59.454 149.43,58.886 148.967,58.149C148.504,57.412 148.272,56.538 148.272,55.527C148.272,53.801 148.956,52.395 150.325,51.311C151.693,50.227 153.42,49.684 155.504,49.684ZM202.085,55.496L202.085,57.928C201.789,57.865 201.475,57.833 201.137,57.833C200.421,57.833 199.643,58.086 198.801,58.591C197.959,59.096 197.359,59.654 197.001,60.265L197.001,71.067L194.632,71.067L194.632,55.812L197.001,55.812L197.001,58.275C198.411,56.422 200.105,55.496 202.085,55.496ZM101.502,50L109.997,71.067L106.997,71.067L105.133,66.392L94.649,66.392L92.785,71.067L89.785,71.067L98.249,50L101.502,50ZM183.232,57.549C181.674,57.549 180.437,58.123 179.521,59.27C178.605,60.418 178.147,61.802 178.147,63.423C178.147,65.066 178.6,66.466 179.505,67.624C180.431,68.761 181.674,69.329 183.232,69.329C184.79,69.329 186.021,68.756 186.926,67.608C187.832,66.461 188.284,65.066 188.284,63.423C188.284,61.781 187.832,60.391 186.926,59.254C186.021,58.117 184.79,57.549 183.232,57.549ZM137.63,57.549C136.724,57.549 135.845,57.786 134.993,58.259C134.14,58.733 133.503,59.307 133.082,59.981L133.082,66.866C133.503,67.561 134.14,68.145 134.993,68.619C135.845,69.093 136.724,69.329 137.63,69.329C139.124,69.329 140.314,68.777 141.198,67.671C142.082,66.566 142.524,65.15 142.524,63.423C142.524,61.697 142.082,60.286 141.198,59.191C140.314,58.096 139.124,57.549 137.63,57.549ZM119.566,57.549C118.66,57.549 117.781,57.786 116.929,58.259C116.076,58.733 115.439,59.307 115.018,59.981L115.018,66.866C115.439,67.561 116.076,68.145 116.929,68.619C117.781,69.093 118.66,69.329 119.566,69.329C121.06,69.329 122.25,68.777 123.134,67.671C124.018,66.566 124.461,65.15 124.461,63.423C124.461,61.697 124.018,60.286 123.134,59.191C122.25,58.096 121.06,57.549 119.566,57.549ZM99.891,52.716L95.407,64.055L104.344,64.055L99.891,52.716ZM211.653,57.391C210.137,57.391 208.943,57.907 208.069,58.938C207.195,59.97 206.727,61.149 206.663,62.476L216.675,62.476C216.653,61.17 216.211,59.996 215.349,58.954C214.485,57.912 213.253,57.391 211.653,57.391ZM156.17,27.439C157.189,27.439 158.018,27.684 158.657,28.176C159.295,28.667 159.615,29.422 159.615,30.442L159.615,36.559L158.233,36.559L158.233,35.545C157.484,36.368 156.501,36.78 155.286,36.78C154.463,36.78 153.738,36.516 153.112,35.987C152.485,35.459 152.172,34.741 152.172,33.832C152.172,32.898 152.482,32.177 153.103,31.667C153.723,31.157 154.45,30.902 155.286,30.902C156.551,30.902 157.533,31.308 158.233,32.118L158.233,30.516C158.233,29.926 158.024,29.465 157.607,29.134C157.189,28.802 156.649,28.636 155.986,28.636C154.942,28.636 154.033,29.048 153.259,29.871L152.614,28.913C153.56,27.93 154.745,27.439 156.17,27.439ZM107.665,27.439C108.991,27.439 110.057,27.884 110.861,28.775C111.666,29.665 112.068,30.773 112.068,32.1C112.068,33.427 111.663,34.538 110.852,35.435C110.054,36.331 108.991,36.78 107.665,36.78C106.339,36.78 105.273,36.331 104.469,35.435C103.664,34.538 103.262,33.427 103.262,32.1C103.262,30.773 103.664,29.665 104.469,28.775C105.273,27.884 106.339,27.439 107.665,27.439ZM192.903,27.439C194.229,27.439 195.295,27.884 196.099,28.775C196.904,29.665 197.306,30.773 197.306,32.1C197.306,33.427 196.901,34.538 196.09,35.435C195.292,36.331 194.229,36.78 192.903,36.78C191.577,36.78 190.511,36.331 189.707,35.435C188.902,34.538 188.5,33.427 188.5,32.1C188.5,30.773 188.902,29.665 189.707,28.775C190.511,27.884 191.577,27.439 192.903,27.439ZM170.207,24.27L170.207,36.559L168.826,36.559L168.826,35.232C168.064,36.264 167.063,36.78 165.823,36.78C164.644,36.78 163.689,36.359 162.958,35.518C162.228,34.676 161.862,33.543 161.862,32.118C161.862,30.706 162.228,29.573 162.958,28.719C163.689,27.866 164.644,27.439 165.823,27.439C167.051,27.439 168.052,27.961 168.826,29.005L168.826,24.27L170.207,24.27ZM146.019,27.439C147.346,27.439 148.411,27.884 149.216,28.775C150.02,29.665 150.422,30.773 150.422,32.1C150.422,33.427 150.017,34.538 149.206,35.435C148.408,36.331 147.346,36.78 146.019,36.78C144.693,36.78 143.628,36.331 142.823,35.435C142.019,34.538 141.617,33.427 141.617,32.1C141.617,30.773 142.019,29.665 142.823,28.775C143.628,27.884 144.693,27.439 146.019,27.439ZM132.387,27.439C134.279,27.439 135.224,28.397 135.224,30.313L135.224,36.559L133.843,36.559L133.843,30.737C133.843,29.987 133.671,29.456 133.327,29.143C132.983,28.83 132.492,28.673 131.853,28.673C131.337,28.673 130.837,28.808 130.352,29.078C129.866,29.349 129.489,29.674 129.219,30.055L129.219,36.559L127.837,36.559L127.837,27.66L129.219,27.66L129.219,28.95C129.563,28.544 130.023,28.191 130.6,27.89C131.177,27.589 131.773,27.439 132.387,27.439ZM209.187,27.439C210.845,27.439 211.675,28.335 211.675,30.129L211.675,36.559L210.293,36.559L210.293,30.516C210.293,29.287 209.747,28.673 208.653,28.673C208.211,28.673 207.769,28.808 207.327,29.078C206.885,29.349 206.541,29.668 206.295,30.037L206.295,36.559L204.913,36.559L204.913,30.516C204.913,29.287 204.367,28.673 203.275,28.673C202.845,28.673 202.411,28.808 201.975,29.078C201.539,29.349 201.193,29.674 200.935,30.055L200.935,36.559L199.553,36.559L199.553,27.66L200.935,27.66L200.935,28.95C201.155,28.606 201.543,28.268 202.095,27.936C202.647,27.605 203.219,27.439 203.809,27.439C204.459,27.439 204.987,27.592 205.393,27.899C205.797,28.206 206.069,28.606 206.203,29.097C206.473,28.655 206.885,28.268 207.437,27.936C207.991,27.605 208.573,27.439 209.187,27.439ZM187.284,27.476L187.284,28.894C187.112,28.857 186.928,28.839 186.732,28.839C186.314,28.839 185.86,28.986 185.369,29.281C184.877,29.576 184.527,29.901 184.318,30.258L184.318,36.559L182.937,36.559L182.937,27.66L184.318,27.66L184.318,29.097C185.141,28.016 186.13,27.476 187.284,27.476ZM95.138,24.27C97.017,24.27 98.537,24.853 99.698,26.02C100.858,27.187 101.438,28.655 101.438,30.423C101.438,32.204 100.858,33.672 99.698,34.827C98.537,35.981 97.017,36.559 95.138,36.559L90.938,36.559L90.938,24.27L95.138,24.27ZM114.592,27.66L116.765,34.753L119.105,27.66L120.284,27.66L122.624,34.753L124.797,27.66L126.234,27.66L123.397,36.559L122.016,36.559L119.695,29.41L117.373,36.559L115.992,36.559L113.155,27.66L114.592,27.66ZM139.369,24.27L139.369,36.559L137.987,36.559L137.987,24.27L139.369,24.27ZM180.689,24.086C181.451,24.086 182.077,24.313 182.568,24.767L181.997,25.67C181.666,25.375 181.297,25.228 180.892,25.228C180.438,25.228 180.091,25.378 179.851,25.679C179.612,25.98 179.492,26.413 179.492,26.978L179.492,27.66L181.297,27.66L181.297,28.876L179.492,28.876L179.492,36.559L178.11,36.559L178.11,28.876L176.637,28.876L176.637,27.66L178.11,27.66L178.11,26.978C178.11,26.069 178.341,25.36 178.801,24.85C179.262,24.341 179.891,24.086 180.689,24.086ZM155.783,31.897C155.144,31.897 154.619,32.078 154.208,32.441C153.796,32.803 153.591,33.273 153.591,33.85C153.591,34.415 153.796,34.879 154.208,35.241C154.619,35.604 155.144,35.785 155.783,35.785C156.888,35.785 157.705,35.416 158.233,34.679L158.233,33.003C157.705,32.266 156.888,31.897 155.783,31.897ZM146.019,28.673C145.111,28.673 144.389,29.008 143.855,29.677C143.321,30.347 143.053,31.154 143.053,32.1C143.053,33.058 143.318,33.875 143.846,34.55C144.386,35.214 145.111,35.545 146.019,35.545C146.928,35.545 147.647,35.211 148.175,34.541C148.703,33.872 148.967,33.058 148.967,32.1C148.967,31.142 148.703,30.331 148.175,29.668C147.647,29.005 146.928,28.673 146.019,28.673ZM107.665,28.673C106.756,28.673 106.035,29.008 105.5,29.677C104.966,30.347 104.699,31.154 104.699,32.1C104.699,33.058 104.963,33.875 105.491,34.55C106.032,35.214 106.756,35.545 107.665,35.545C108.574,35.545 109.292,35.211 109.82,34.541C110.349,33.872 110.613,33.058 110.613,32.1C110.613,31.142 110.349,30.331 109.82,29.668C109.292,29.005 108.574,28.673 107.665,28.673ZM166.155,28.673C165.283,28.673 164.589,28.996 164.073,29.64C163.557,30.285 163.299,31.111 163.299,32.118C163.299,33.126 163.557,33.949 164.073,34.587C164.589,35.226 165.283,35.545 166.155,35.545C166.695,35.545 167.211,35.41 167.702,35.14C168.193,34.87 168.568,34.538 168.826,34.145L168.826,30.11C168.568,29.705 168.19,29.364 167.693,29.088C167.195,28.811 166.683,28.673 166.155,28.673ZM192.903,28.673C191.994,28.673 191.273,29.008 190.738,29.677C190.204,30.347 189.937,31.154 189.937,32.1C189.937,33.058 190.201,33.875 190.729,34.55C191.27,35.214 191.994,35.545 192.903,35.545C193.812,35.545 194.53,35.211 195.058,34.541C195.587,33.872 195.851,33.058 195.851,32.1C195.851,31.142 195.587,30.331 195.058,29.668C194.53,29.005 193.812,28.673 192.903,28.673ZM95.138,25.633L92.467,25.633L92.467,35.195L95.138,35.195C96.587,35.195 97.736,34.741 98.583,33.832C99.43,32.923 99.854,31.787 99.854,30.423C99.854,29.048 99.437,27.906 98.601,26.997C97.766,26.088 96.612,25.633 95.138,25.633ZM58.057,23.399C58.375,26.278 57.211,29.164 55.486,31.244C53.759,33.32 50.927,34.936 48.153,34.721C47.778,31.899 49.178,28.961 50.778,27.119C52.561,25.044 55.573,23.499 58.057,23.399Z" fill="#B58934"/>
</svg>
