<svg width="42" height="42" viewBox="0 0 42 42" fill="none" xmlns="http://www.w3.org/2000/svg" xmlns:xlink="http://www.w3.org/1999/xlink">
<path d="M26.859,20C26.859,18.109 26.187,16.492 24.851,15.148C23.508,13.813 21.891,13.141 20,13.141C18.109,13.141 16.492,13.813 15.148,15.148C13.813,16.492 13.141,18.109 13.141,20C13.141,21.891 13.813,23.508 15.148,24.851C16.492,26.187 18.109,26.859 20,26.859C21.891,26.859 23.508,26.187 24.851,24.851C26.187,23.508 26.859,21.891 26.859,20ZM30.555,20C30.555,22.93 29.523,25.422 27.476,27.476C25.422,29.523 22.93,30.555 20,30.555C17.07,30.555 14.578,29.523 12.523,27.476C10.477,25.422 9.445,22.93 9.445,20C9.445,17.07 10.477,14.578 12.523,12.523C14.578,10.477 17.07,9.445 20,9.445C22.93,9.445 25.422,10.477 27.476,12.523C29.523,14.578 30.555,17.07 30.555,20ZM33.445,9.016C33.445,9.695 33.203,10.273 32.726,10.758C32.242,11.242 31.664,11.484 30.984,11.484C30.305,11.484 29.726,11.242 29.242,10.758C28.758,10.273 28.516,9.695 28.516,9.016C28.516,8.336 28.758,7.758 29.242,7.273C29.726,6.797 30.305,6.555 30.984,6.555C31.664,6.555 32.242,6.797 32.726,7.273C33.203,7.758 33.445,8.336 33.445,9.016ZM20,3.125C19.875,3.125 19.195,3.117 17.953,3.109C16.711,3.102 15.766,3.102 15.125,3.109C14.484,3.117 13.617,3.148 12.539,3.195C11.461,3.234 10.539,3.328 9.781,3.461C9.023,3.594 8.383,3.758 7.867,3.953C6.977,4.313 6.188,4.828 5.508,5.508C4.828,6.188 4.313,6.977 3.953,7.867C3.758,8.383 3.594,9.023 3.461,9.781C3.328,10.539 3.234,11.461 3.195,12.539C3.148,13.617 3.117,14.484 3.109,15.125C3.102,15.766 3.102,16.711 3.109,17.953C3.117,19.195 3.125,19.875 3.125,20C3.125,20.125 3.117,20.805 3.109,22.047C3.102,23.289 3.102,24.234 3.109,24.875C3.117,25.516 3.148,26.383 3.195,27.461C3.234,28.539 3.328,29.461 3.461,30.219C3.594,30.976 3.758,31.617 3.953,32.133C4.313,33.023 4.828,33.812 5.508,34.492C6.188,35.172 6.977,35.687 7.867,36.047C8.383,36.242 9.023,36.406 9.781,36.539C10.539,36.672 11.461,36.766 12.539,36.805C13.617,36.851 14.484,36.883 15.125,36.891C15.766,36.898 16.711,36.898 17.953,36.891C19.195,36.883 19.875,36.875 20,36.875C20.125,36.875 20.805,36.883 22.047,36.891C23.289,36.898 24.234,36.898 24.875,36.891C25.516,36.883 26.383,36.851 27.461,36.805C28.539,36.766 29.461,36.672 30.219,36.539C30.976,36.406 31.617,36.242 32.133,36.047C33.023,35.687 33.812,35.172 34.492,34.492C35.172,33.812 35.687,33.023 36.047,32.133C36.242,31.617 36.406,30.976 36.539,30.219C36.672,29.461 36.766,28.539 36.805,27.461C36.851,26.383 36.883,25.516 36.891,24.875C36.898,24.234 36.898,23.289 36.891,22.047C36.883,20.805 36.875,20.125 36.875,20C36.875,19.875 36.883,19.195 36.891,17.953C36.898,16.711 36.898,15.766 36.891,15.125C36.883,14.484 36.851,13.617 36.805,12.539C36.766,11.461 36.672,10.539 36.539,9.781C36.406,9.023 36.242,8.383 36.047,7.867C35.687,6.977 35.172,6.188 34.492,5.508C33.812,4.828 33.023,4.313 32.133,3.953C31.617,3.758 30.976,3.594 30.219,3.461C29.461,3.328 28.539,3.234 27.461,3.195C26.383,3.148 25.516,3.117 24.875,3.109C24.234,3.102 23.289,3.102 22.047,3.109C20.805,3.117 20.125,3.125 20,3.125ZM40.57,20C40.57,24.086 40.523,26.922 40.437,28.492C40.258,32.203 39.148,35.078 37.117,37.117C35.078,39.148 32.203,40.258 28.492,40.437C26.922,40.523 24.086,40.57 20,40.57C15.914,40.57 13.078,40.523 11.508,40.437C7.797,40.258 4.922,39.148 2.883,37.117C0.852,35.078 -0.258,32.203 -0.438,28.492C-0.523,26.922 -0.57,24.086 -0.57,20C-0.57,15.914 -0.523,13.078 -0.438,11.508C-0.258,7.797 0.852,4.922 2.883,2.883C4.922,0.852 7.797,-0.258 11.508,-0.438C13.078,-0.523 15.914,-0.57 20,-0.57C24.086,-0.57 26.922,-0.523 28.492,-0.438C32.203,-0.258 35.078,0.852 37.117,2.883C39.148,4.922 40.258,7.797 40.437,11.508C40.523,13.078 40.57,15.914 40.57,20Z" fill="#161718"/>
</svg>
