<svg width="34" height="38" viewBox="0 0 34 38" fill="none" xmlns="http://www.w3.org/2000/svg">
<path opacity="0.5" d="M26.3906 36.4375C23.9844 37.2812 21.6016 37.7031 19.2422 37.7031C16.8984 37.7031 14.8438 37.3672 13.0781 36.6953C11.3281 36.0078 9.78125 35.0156 8.4375 33.7188C5.57812 30.9844 3.875 27.1953 3.32812 22.3516C3.09375 20.3203 2.29688 18.9766 0.9375 18.3203C2.29688 17.6797 3.10156 16.3359 3.35156 14.2891C3.60156 12.2266 4.19531 10.3281 5.13281 8.59375C6.07031 6.84375 7.27344 5.35938 8.74219 4.14062C11.7422 1.67188 15.5 0.4375 20.0156 0.4375C23.125 0.4375 25.7344 1.14844 27.8438 2.57031C29.7969 3.88281 31.0078 5.59375 31.4766 7.70312C31.7266 8.89063 32.0469 9.625 32.4375 9.90625C32.5938 10.0312 32.7891 10.1484 33.0234 10.2578C32.1016 11.6328 31.1641 12.2031 30.2109 11.9688C29.9766 11.9219 29.7578 11.8594 29.5547 11.7812C29.2109 12.4687 28.7656 13.0391 28.2188 13.4922C27.6719 13.9453 27.0625 14.2109 26.3906 14.2891C25.7344 14.3516 25.3203 14.3047 25.1484 14.1484C25.5391 13.5703 25.7344 12.8359 25.7344 11.9453C25.7344 11.8359 25.7109 11.6953 25.6641 11.5234C25.5859 11.5547 25.5156 11.5703 25.4531 11.5703C25.3906 11.5703 25.2734 11.5781 25.1016 11.5938C24.9297 11.5938 24.6875 11.5312 24.375 11.4062C24.0625 11.2813 23.7734 11.1094 23.5078 10.8906C22.9141 10.4219 22.6016 9.90625 22.5703 9.34375C22.5703 9.21875 22.5938 9.09375 22.6406 8.96875C23.6094 9.26563 24.5312 9.04687 25.4062 8.3125C26 7.79688 26.2812 7.25 26.25 6.67188C26.2188 6.09375 26.0547 5.61719 25.7578 5.24219C25.4766 4.85156 25.0703 4.51562 24.5391 4.23438C23.3516 3.60937 21.8281 3.29688 19.9688 3.29688C15.7344 3.29688 13.6172 5.75 13.6172 10.6562V14.5469C13.6172 16.3125 14.4766 17.5703 16.1953 18.3203C14.4766 19.1484 13.6172 20.5 13.6172 22.375V28.6562C13.6172 30.6406 13.9922 32.1172 14.7422 33.0859C15.4922 34.0391 16.6797 34.5156 18.3047 34.5156C20.2266 34.5156 21.5 33.6562 22.125 31.9375C22.3281 31.375 22.4297 30.7266 22.4297 29.9922V24.5781C22.1328 24.2812 21.7188 24.1328 21.1875 24.1328C20.6562 24.1328 20.2188 24.2656 19.875 24.5312C19.7031 24.3594 19.6172 24.0312 19.6172 23.5469C19.6172 23.0625 19.8203 22.6094 20.2266 22.1875C20.6328 21.75 21.25 21.5312 22.0781 21.5312C22.9219 21.5312 23.6172 21.7578 24.1641 22.2109C24.9141 21.7578 25.7188 21.5312 26.5781 21.5312C27.4375 21.5312 28.2188 21.7656 28.9219 22.2344C29.5781 21.7656 30.1953 21.5312 30.7734 21.5312C31.3516 21.5312 31.8047 21.5859 32.1328 21.6953C32.4609 21.8047 32.75 21.9531 33 22.1406C33.5625 22.5625 33.8438 23.0859 33.8438 23.7109C33.8438 24.0859 33.7578 24.3594 33.5859 24.5312C33.2266 24.2656 32.7656 24.1328 32.2031 24.1328C31.6406 24.1328 31.0938 24.6641 30.5625 25.7266V33.4141C30.8594 34.3828 31.5078 34.8672 32.5078 34.8672C32.8828 34.8672 33.2422 34.7344 33.5859 34.4688C33.7578 34.7031 33.8438 34.9766 33.8438 35.2891C33.8438 35.9297 33.4922 36.4531 32.7891 36.8594C32.0859 37.2656 31.0781 37.4688 29.7656 37.4688C28.4688 37.4688 27.3438 37.125 26.3906 36.4375ZM8.625 30.7891C8.85938 30.6953 8.97656 30.5312 8.97656 30.2969C8.97656 29.9531 8.8125 29.4141 8.48438 28.6797C8.15625 27.9297 7.85156 26.6719 7.57031 24.9062C7.30469 23.125 7.17188 21.0625 7.17188 18.7188C7.17188 14.9219 7.63281 11.6797 8.55469 8.99219C8.66406 8.60156 8.71875 8.30469 8.71875 8.10156C8.71875 7.89844 8.61719 7.76563 8.41406 7.70312C7.67969 8.625 7.15625 9.53906 6.84375 10.4453C6.26562 12.1016 5.80469 14.3438 5.46094 17.1719C5.41406 17.5781 4.95312 17.9609 4.07812 18.3203C4.95312 18.7109 5.41406 19.1094 5.46094 19.5156C6.02344 24.3594 6.73438 27.5938 7.59375 29.2188C7.90625 29.7969 8.25 30.3203 8.625 30.7891ZM24.8438 32.1953C25.75 31.6328 26.2031 30.6406 26.2031 29.2188V27.8828C26.2031 26.5547 25.75 25.6875 24.8438 25.2812V32.1953ZM30.375 32.6172L30.3047 32.1484L30.375 32.6172Z" fill="#B58934"/>
</svg>