<svg width="282" height="96" viewBox="0 0 282 96" fill="none" xmlns="http://www.w3.org/2000/svg" xmlns:xlink="http://www.w3.org/1999/xlink">
<path d="M267.49,0C275.066,0 281.206,6.14 281.206,13.714L281.206,82.036C281.206,89.611 275.066,95.751 267.49,95.751L13.714,95.751C6.14,95.751 0,89.611 0,82.036L0,13.714C0,6.14 6.14,0 13.714,0L267.49,0ZM267.49,1.097L13.714,1.097C6.746,1.097 1.097,6.746 1.097,13.714L1.097,82.036C1.097,89.005 6.746,94.654 13.714,94.654L267.49,94.654C274.46,94.654 280.108,89.005 280.108,82.036L280.108,13.714C280.108,6.746 274.46,1.097 267.49,1.097ZM244.928,58.544L250.048,71.216L255.2,58.544L257.792,58.544L250.048,77.136C249.12,79.376 247.552,80.24 245.504,80.272C244.992,80.272 244.192,80.176 243.776,80.048L244.128,77.872C244.48,78.032 245.056,78.128 245.44,78.128C246.496,78.128 247.2,77.776 247.744,76.496L248.768,74.16L242.304,58.544L244.928,58.544ZM155.808,58.16C157.888,58.16 159.776,59.184 161.024,60.88L161.024,58.544L163.424,58.544L163.424,73.776C163.424,78.672 159.808,80.272 156.032,80.272C153.44,80.272 151.648,79.76 149.792,77.936L151.008,76.208C152.288,77.712 153.824,78.288 156.032,78.288C158.592,78.288 161.024,77.04 161.024,73.776L161.024,71.44C159.872,73.008 157.984,74.192 155.808,74.192C151.776,74.192 148.928,71.184 148.928,66.192C148.928,61.232 151.744,58.16 155.808,58.16ZM100.608,52.304C104.416,52.304 107.04,53.968 108.896,56.272L106.784,57.616C105.44,55.888 103.168,54.672 100.608,54.672C95.936,54.672 92.384,58.224 92.384,63.344C92.384,68.4 95.936,72.016 100.608,72.016C103.168,72.016 105.28,70.8 106.368,69.712L106.368,65.392L99.008,65.392L99.008,63.024L108.992,63.024L108.992,70.704C107.008,72.944 104.096,74.416 100.608,74.416C94.528,74.416 89.632,69.968 89.632,63.344C89.632,56.688 94.528,52.304 100.608,52.304ZM233.792,58.16C237.088,58.16 239.776,59.632 239.776,63.376L239.776,74L237.376,74L237.376,72.24C236.128,73.648 234.336,74.384 232.256,74.384C229.664,74.384 226.88,72.624 226.88,69.264C226.88,65.776 229.632,64.176 232.256,64.176C234.368,64.176 236.128,64.848 237.376,66.256L237.376,63.472C237.376,61.424 235.712,60.24 233.472,60.24C231.616,60.24 230.112,60.88 228.736,62.384L227.616,60.72C229.28,58.992 231.264,58.16 233.792,58.16ZM182.144,58.16C186.816,58.16 189.568,61.808 189.568,66.448L189.568,67.056L177.088,67.056C177.28,69.968 179.296,72.4 182.624,72.4C184.416,72.4 186.176,71.696 187.424,70.416L188.576,71.984C187.008,73.52 184.928,74.384 182.432,74.384C177.824,74.384 174.528,71.088 174.528,66.256C174.528,61.776 177.728,58.16 182.144,58.16ZM138.272,58.16C142.976,58.16 145.92,61.776 145.92,66.256C145.92,70.736 142.976,74.384 138.272,74.384C133.568,74.384 130.624,70.736 130.624,66.256C130.624,61.776 133.568,58.16 138.272,58.16ZM119.968,58.16C124.672,58.16 127.616,61.776 127.616,66.256C127.616,70.736 124.672,74.384 119.968,74.384C115.264,74.384 112.32,70.736 112.32,66.256C112.32,61.776 115.264,58.16 119.968,58.16ZM222.912,52.656L222.912,74L220.512,74L220.512,52.656L222.912,52.656ZM210.4,52.656C214.688,52.656 217.088,55.6 217.088,59.088C217.088,62.576 214.656,65.52 210.4,65.52L204.48,65.52L204.48,74L201.824,74L201.824,52.656L210.4,52.656ZM170.624,52.656L170.624,74L168.224,74L168.224,52.656L170.624,52.656ZM233.152,65.904C230.88,65.904 229.312,67.312 229.312,69.264C229.312,71.248 230.88,72.656 233.152,72.656C234.816,72.656 236.448,72.016 237.376,70.736L237.376,67.792C236.448,66.544 234.816,65.904 233.152,65.904ZM138.272,60.304C134.976,60.304 133.152,63.12 133.152,66.256C133.152,69.424 134.976,72.24 138.272,72.24C141.568,72.24 143.392,69.424 143.392,66.256C143.392,63.12 141.568,60.304 138.272,60.304ZM119.968,60.304C116.672,60.304 114.848,63.12 114.848,66.256C114.848,69.424 116.672,72.24 119.968,72.24C123.264,72.24 125.088,69.424 125.088,66.256C125.088,63.12 123.264,60.304 119.968,60.304ZM156.416,60.304C153.28,60.304 151.424,62.768 151.424,66.192C151.424,69.584 153.28,72.048 156.416,72.048C158.304,72.048 160.16,70.896 161.024,69.552L161.024,62.768C160.16,61.456 158.304,60.304 156.416,60.304ZM54.802,51.793L59.79,56.92C50.432,62.758 36.776,71.267 36.27,71.588C35.908,71.811 35.524,71.931 35.145,72L54.802,51.793ZM32.078,28.426L52.113,49.029L32.056,69.648C32.033,69.488 32,69.333 32,69.167L32,29.113C32,28.873 32.033,28.65 32.078,28.426ZM182.112,60.144C178.816,60.144 177.184,62.928 177.056,65.264L187.2,65.264C187.168,62.992 185.632,60.144 182.112,60.144ZM210.08,55.024L204.48,55.024L204.48,63.152L210.08,63.152C212.608,63.152 214.336,61.488 214.336,59.088C214.336,56.688 212.608,55.024 210.08,55.024ZM63.236,43.123C66.175,44.954 68.213,46.224 68.435,46.35C69.41,46.917 69.989,47.838 70,48.874C70.016,49.927 69.443,50.894 68.424,51.535C68.196,51.678 66.125,52.966 63.136,54.832L57.491,49.029L63.236,43.123ZM35.084,26C35.607,26.04 36.136,26.206 36.632,26.515L39.437,28.266C43.624,30.882 52.937,36.702 59.89,41.034L54.802,46.264L35.084,26ZM144.367,25.947C145.663,25.947 146.704,26.382 147.49,27.252C148.276,28.122 148.669,29.205 148.669,30.501C148.669,31.797 148.273,32.883 147.481,33.759C146.701,34.635 145.663,35.073 144.367,35.073C143.071,35.073 142.03,34.635 141.244,33.759C140.458,32.883 140.065,31.797 140.065,30.501C140.065,29.205 140.458,28.122 141.244,27.252C142.03,26.382 143.071,25.947 144.367,25.947ZM154.285,25.947C155.281,25.947 156.091,26.187 156.715,26.667C157.339,27.147 157.651,27.885 157.651,28.881L157.651,34.857L156.301,34.857L156.301,33.867C155.569,34.671 154.609,35.073 153.421,35.073C152.617,35.073 151.909,34.815 151.297,34.299C150.685,33.783 150.379,33.081 150.379,32.193C150.379,31.281 150.682,30.576 151.288,30.078C151.894,29.58 152.605,29.331 153.421,29.331C154.657,29.331 155.617,29.727 156.301,30.519L156.301,28.953C156.301,28.377 156.097,27.927 155.689,27.603C155.281,27.279 154.753,27.117 154.105,27.117C153.085,27.117 152.197,27.519 151.441,28.323L150.811,27.387C151.735,26.427 152.893,25.947 154.285,25.947ZM190.177,25.947C191.473,25.947 192.514,26.382 193.3,27.252C194.086,28.122 194.479,29.205 194.479,30.501C194.479,31.797 194.083,32.883 193.291,33.759C192.511,34.635 191.473,35.073 190.177,35.073C188.881,35.073 187.84,34.635 187.054,33.759C186.268,32.883 185.875,31.797 185.875,30.501C185.875,29.205 186.268,28.122 187.054,27.252C187.84,26.382 188.881,25.947 190.177,25.947ZM106.891,25.947C108.187,25.947 109.228,26.382 110.014,27.252C110.8,28.122 111.193,29.205 111.193,30.501C111.193,31.797 110.797,32.883 110.005,33.759C109.225,34.635 108.187,35.073 106.891,35.073C105.595,35.073 104.554,34.635 103.768,33.759C102.982,32.883 102.589,31.797 102.589,30.501C102.589,29.205 102.982,28.122 103.768,27.252C104.554,26.382 105.595,25.947 106.891,25.947ZM168.001,22.851L168.001,34.857L166.651,34.857L166.651,33.561C165.907,34.569 164.929,35.073 163.717,35.073C162.565,35.073 161.632,34.662 160.918,33.84C160.204,33.018 159.847,31.911 159.847,30.519C159.847,29.139 160.204,28.032 160.918,27.198C161.632,26.364 162.565,25.947 163.717,25.947C164.917,25.947 165.895,26.457 166.651,27.477L166.651,22.851L168.001,22.851ZM178.243,22.671C178.987,22.671 179.599,22.893 180.079,23.337L179.521,24.219C179.197,23.931 178.837,23.787 178.441,23.787C177.997,23.787 177.658,23.934 177.424,24.228C177.19,24.522 177.073,24.945 177.073,25.497L177.073,26.163L178.837,26.163L178.837,27.351L177.073,27.351L177.073,34.857L175.723,34.857L175.723,27.351L174.283,27.351L174.283,26.163L175.723,26.163L175.723,25.497C175.723,24.609 175.948,23.916 176.398,23.418C176.848,22.92 177.463,22.671 178.243,22.671ZM206.088,25.947C207.708,25.947 208.518,26.823 208.518,28.575L208.518,34.857L207.168,34.857L207.168,28.953C207.168,27.753 206.634,27.153 205.566,27.153C205.134,27.153 204.702,27.285 204.27,27.549C203.838,27.813 203.502,28.125 203.262,28.485L203.262,34.857L201.912,34.857L201.912,28.953C201.912,27.753 201.378,27.153 200.31,27.153C199.891,27.153 199.468,27.285 199.042,27.549C198.616,27.813 198.277,28.131 198.025,28.503L198.025,34.857L196.675,34.857L196.675,26.163L198.025,26.163L198.025,27.423C198.241,27.087 198.619,26.757 199.159,26.433C199.699,26.109 200.256,25.947 200.832,25.947C201.468,25.947 201.984,26.097 202.38,26.397C202.776,26.697 203.04,27.087 203.172,27.567C203.436,27.135 203.838,26.757 204.378,26.433C204.918,26.109 205.488,25.947 206.088,25.947ZM131.047,25.947C132.895,25.947 133.819,26.883 133.819,28.755L133.819,34.857L132.469,34.857L132.469,29.169C132.469,28.437 132.301,27.918 131.965,27.612C131.629,27.306 131.149,27.153 130.525,27.153C130.021,27.153 129.532,27.285 129.058,27.549C128.584,27.813 128.215,28.131 127.951,28.503L127.951,34.857L126.601,34.857L126.601,26.163L127.951,26.163L127.951,27.423C128.287,27.027 128.737,26.682 129.301,26.388C129.865,26.094 130.447,25.947 131.047,25.947ZM94.651,22.851C96.487,22.851 97.972,23.421 99.106,24.561C100.24,25.701 100.807,27.135 100.807,28.863C100.807,30.603 100.24,32.037 99.106,33.165C97.972,34.293 96.487,34.857 94.651,34.857L90.547,34.857L90.547,22.851L94.651,22.851ZM113.659,26.163L115.783,33.093L118.069,26.163L119.221,26.163L121.507,33.093L123.631,26.163L125.035,26.163L122.263,34.857L120.913,34.857L118.645,27.873L116.377,34.857L115.027,34.857L112.255,26.163L113.659,26.163ZM184.687,25.983L184.687,27.369C184.519,27.333 184.339,27.315 184.147,27.315C183.739,27.315 183.295,27.459 182.815,27.747C182.335,28.035 181.993,28.353 181.789,28.701L181.789,34.857L180.439,34.857L180.439,26.163L181.789,26.163L181.789,27.567C182.593,26.511 183.559,25.983 184.687,25.983ZM137.869,22.851L137.869,34.857L136.519,34.857L136.519,22.851L137.869,22.851ZM153.907,30.303C153.283,30.303 152.77,30.48 152.368,30.834C151.966,31.188 151.765,31.647 151.765,32.211C151.765,32.763 151.966,33.216 152.368,33.57C152.77,33.924 153.283,34.101 153.907,34.101C154.987,34.101 155.785,33.741 156.301,33.021L156.301,31.383C155.785,30.663 154.987,30.303 153.907,30.303ZM106.891,27.153C106.003,27.153 105.298,27.48 104.776,28.134C104.254,28.788 103.993,29.577 103.993,30.501C103.993,31.437 104.251,32.235 104.767,32.895C105.295,33.543 106.003,33.867 106.891,33.867C107.779,33.867 108.481,33.54 108.997,32.886C109.513,32.232 109.771,31.437 109.771,30.501C109.771,29.565 109.513,28.773 108.997,28.125C108.481,27.477 107.779,27.153 106.891,27.153ZM190.177,27.153C189.289,27.153 188.584,27.48 188.062,28.134C187.54,28.788 187.279,29.577 187.279,30.501C187.279,31.437 187.537,32.235 188.053,32.895C188.581,33.543 189.289,33.867 190.177,33.867C191.065,33.867 191.767,33.54 192.283,32.886C192.799,32.232 193.057,31.437 193.057,30.501C193.057,29.565 192.799,28.773 192.283,28.125C191.767,27.477 191.065,27.153 190.177,27.153ZM144.367,27.153C143.479,27.153 142.774,27.48 142.252,28.134C141.73,28.788 141.469,29.577 141.469,30.501C141.469,31.437 141.727,32.235 142.243,32.895C142.771,33.543 143.479,33.867 144.367,33.867C145.255,33.867 145.957,33.54 146.473,32.886C146.989,32.232 147.247,31.437 147.247,30.501C147.247,29.565 146.989,28.773 146.473,28.125C145.957,27.477 145.255,27.153 144.367,27.153ZM164.041,27.153C163.189,27.153 162.511,27.468 162.007,28.098C161.503,28.728 161.251,29.535 161.251,30.519C161.251,31.503 161.503,32.307 162.007,32.931C162.511,33.555 163.189,33.867 164.041,33.867C164.569,33.867 165.073,33.735 165.553,33.471C166.033,33.207 166.399,32.883 166.651,32.499L166.651,28.557C166.399,28.161 166.03,27.828 165.544,27.558C165.058,27.288 164.557,27.153 164.041,27.153ZM94.651,24.183L92.041,24.183L92.041,33.525L94.651,33.525C96.067,33.525 97.189,33.081 98.017,32.193C98.845,31.305 99.259,30.195 99.259,28.863C99.259,27.519 98.851,26.403 98.035,25.515C97.219,24.627 96.091,24.183 94.651,24.183Z" fill="#B58934"/>
</svg>
