<svg width="44" height="36" viewBox="0 0 44 36" fill="none" xmlns="http://www.w3.org/2000/svg" xmlns:xlink="http://www.w3.org/1999/xlink">
<path d="M43.109,4.93C41.914,6.68 40.461,8.172 38.766,9.398C38.789,9.648 38.797,10.023 38.797,10.523C38.797,12.852 38.453,15.164 37.773,17.477C37.102,19.789 36.07,22.008 34.68,24.133C33.297,26.258 31.648,28.141 29.742,29.773C27.828,31.406 25.523,32.711 22.828,33.68C20.133,34.656 17.25,35.141 14.18,35.141C9.336,35.141 4.914,33.852 0.891,31.258C1.516,31.328 2.211,31.367 2.984,31.367C7,31.367 10.578,30.133 13.727,27.672C11.852,27.633 10.172,27.055 8.688,25.945C7.203,24.828 6.188,23.398 5.633,21.672C6.227,21.758 6.766,21.805 7.266,21.805C8.039,21.805 8.797,21.703 9.547,21.508C7.547,21.102 5.891,20.102 4.578,18.523C3.266,16.945 2.609,15.109 2.609,13.016L2.609,12.914C3.82,13.586 5.125,13.953 6.516,14.008C5.336,13.227 4.398,12.195 3.703,10.93C3.008,9.664 2.664,8.289 2.664,6.805C2.664,5.234 3.055,3.773 3.836,2.437C6,5.102 8.633,7.227 11.727,8.828C14.828,10.422 18.141,11.312 21.68,11.492C21.539,10.812 21.461,10.148 21.461,9.508C21.461,7.117 22.305,5.078 23.992,3.391C25.68,1.703 27.727,0.859 30.117,0.859C32.617,0.859 34.727,1.766 36.437,3.586C38.383,3.211 40.211,2.516 41.93,1.5C41.266,3.555 40,5.141 38.125,6.266C39.789,6.086 41.445,5.641 43.109,4.93Z" fill="#161718"/>
</svg>
