<svg width="25" height="25" viewBox="0 0 25 25" fill="none" xmlns="http://www.w3.org/2000/svg">
<g clip-path="url(#clip0_116_74)">
<path d="M16.2071 20.3571L13.7894 17.9313C12.8527 18.2648 11.8406 18.3254 10.8708 18.1062C9.90099 17.8869 9.0134 17.3967 8.31129 16.6927C7.60918 15.9887 7.12142 15.0998 6.90476 14.1294C6.68811 13.159 6.75146 12.1471 7.08746 11.2113L4.00163 8.11713C1.44257 10.3862 0.0320815 12.9673 0.0320815 12.9673C0.0320815 12.9673 4.52095 21.2233 12.0209 21.2335C13.4616 21.2304 14.8863 20.9321 16.2071 20.3571ZM7.85702 5.60983C9.17787 5.03475 10.6026 4.73649 12.0432 4.73348C19.5432 4.7436 24.0321 12.9997 24.0321 12.9997C24.0321 12.9997 22.6201 15.5793 20.064 17.8513L16.9752 14.7541C17.3112 13.8184 17.3745 12.8064 17.1579 11.836C16.9412 10.8656 16.4535 9.97672 15.7514 9.27271C15.0492 8.56871 14.1617 8.07855 13.1919 7.85927C12.2221 7.64 11.2099 7.70062 10.2732 8.03409L7.85702 5.60983Z" fill="white" fill-opacity="0.5"/>
<path d="M8.32027 12.4475C8.23698 13.0238 8.28906 13.6117 8.4724 14.1644C8.65573 14.7171 8.96527 15.2196 9.37649 15.6319C9.78771 16.0442 10.2893 16.3551 10.8415 16.5399C11.3938 16.7248 11.9815 16.7784 12.558 16.6967L8.32027 12.4475ZM15.7438 13.5195L11.5061 9.26877C12.0826 9.18704 12.6703 9.24071 13.2226 9.42554C13.7748 9.61036 14.2764 9.92125 14.6876 10.3336C15.0988 10.7459 15.4084 11.2484 15.5917 11.8011C15.775 12.3538 15.8271 12.9416 15.7438 13.518L15.7438 13.5195ZM20.4882 22.5259L2.51248 4.50164L3.57592 3.44107L21.5516 21.4653L20.4882 22.5259Z" fill="white" fill-opacity="0.5"/>
</g>
<defs>
<clipPath id="clip0_116_74">
<rect width="24" height="24" fill="white" transform="translate(0.0483398 0.967285) rotate(0.077307)"/>
</clipPath>
</defs>
</svg>
