<svg width="274" height="29" viewBox="0 0 274 29" fill="none" xmlns="http://www.w3.org/2000/svg">
<path d="M6.03125 27.3125C5.34375 27.3125 4.73438 27.1458 4.20312 26.8125C3.67188 27.1458 3.17708 27.3125 2.71875 27.3125C2.27083 27.3125 1.90104 27.2708 1.60938 27.1875C1.31771 27.1146 1.0625 27.0104 0.84375 26.875C0.395833 26.6042 0.171875 26.2656 0.171875 25.8594C0.171875 25.651 0.229167 25.4688 0.34375 25.3125C0.572917 25.4896 0.864583 25.5781 1.21875 25.5781C2.14583 25.5781 2.78646 25.1823 3.14062 24.3906V16.75C3.14062 16.2812 3.04167 15.9219 2.84375 15.6719C2.53125 15.2656 1.99479 14.8802 1.23438 14.5156C1.93229 14.1927 2.39062 13.9115 2.60938 13.6719C2.96354 13.2656 3.14062 12.8125 3.14062 12.3125V5.71875C2.78646 4.91667 2.14583 4.51562 1.21875 4.51562C0.864583 4.51562 0.572917 4.60417 0.34375 4.78125C0.229167 4.625 0.171875 4.44792 0.171875 4.25C0.171875 4.04167 0.229167 3.84896 0.34375 3.67188C0.46875 3.49479 0.635417 3.34375 0.84375 3.21875C1.32292 2.92708 1.86979 2.78125 2.48438 2.78125C3.10938 2.78125 3.68229 2.95312 4.20312 3.29688C4.74479 2.95312 5.34896 2.78125 6.01562 2.78125C6.74479 2.78125 7.38021 2.97396 7.92188 3.35938C9.07812 2.86979 10.2292 2.625 11.375 2.625C12.5208 2.625 13.5625 2.73958 14.5 2.96875C15.4479 3.1875 16.3021 3.5 17.0625 3.90625C18.7188 4.78125 19.75 5.91667 20.1562 7.3125C20.3854 8.08333 20.8802 8.65625 21.6406 9.03125C20.7969 9.61458 20.276 10.2812 20.0781 11.0312C19.6406 12.6771 18.7552 13.75 17.4219 14.25C19.3802 14.7917 20.6562 16.0729 21.25 18.0938C21.4583 18.8125 21.9531 19.401 22.7344 19.8594C21.9323 20.3073 21.3958 20.9844 21.125 21.8906C20.8542 22.7969 20.375 23.6146 19.6875 24.3438C19.0104 25.0625 18.2188 25.6562 17.3125 26.125C15.5625 27.0208 13.5885 27.4688 11.3906 27.4688C10.0781 27.4688 8.90625 27.2344 7.875 26.7656C7.33333 27.1302 6.71875 27.3125 6.03125 27.3125ZM11.8125 13.5C12.7292 13.5 13.3802 13.2812 13.7656 12.8438C14.1719 12.3958 14.375 11.625 14.375 10.5312V6.92188C14.375 6.28646 14.0417 5.75 13.375 5.3125C12.7917 4.92708 12.25 4.73438 11.75 4.73438C11.2604 4.73438 10.8542 4.79688 10.5312 4.92188C10.2188 5.03646 9.9375 5.19792 9.6875 5.40625C9.15625 5.84375 8.89062 6.36979 8.89062 6.98438V13.5H11.8125ZM15.2656 5.09375C15.6198 5.88542 15.7969 7.04167 15.7969 8.5625C15.7969 10.8021 15.651 12.2552 15.3594 12.9219C15.7969 12.8385 16.1667 12.4167 16.4688 11.6562C16.5833 11.375 16.6667 11.0781 16.7188 10.7656C16.7812 10.4531 16.8281 10.2135 16.8594 10.0469C16.901 9.86979 16.9583 9.71875 17.0312 9.59375C17.1875 9.33333 17.4688 9.13542 17.875 9C17.4583 8.86458 17.1979 8.71875 17.0938 8.5625C16.9583 8.38542 16.849 8.0625 16.7656 7.59375C16.6823 7.125 16.5833 6.74479 16.4688 6.45312C16.3542 6.15104 16.2292 5.90625 16.0938 5.71875C15.8333 5.34375 15.5573 5.13542 15.2656 5.09375ZM4.64062 22.8594C5.16146 22.6615 5.44792 21.9792 5.5 20.8125C5.5625 19.6458 5.59375 18.0312 5.59375 15.9688C5.59375 13.9062 5.58854 12.5365 5.57812 11.8594C5.57812 11.1719 5.57292 10.6198 5.5625 10.2031C5.53125 8.97396 5.41146 8.23438 5.20312 7.98438C5.00521 7.72396 4.81771 7.55208 4.64062 7.46875C4.64062 11.0938 4.57812 13.1562 4.45312 13.6562C4.30729 14.0729 3.95312 14.3698 3.39062 14.5469C4.01562 14.7656 4.36979 15.0312 4.45312 15.3438C4.57812 15.8438 4.64062 17.6719 4.64062 20.8281V22.8594ZM8.89062 22.9219C8.89062 23.651 9.16667 24.25 9.71875 24.7188C10.25 25.1562 10.8854 25.375 11.625 25.375C12.3438 25.375 12.9479 25.2188 13.4375 24.9062C14.375 24.2917 14.8438 23.5885 14.8438 22.7969V18.2188C14.8438 17.2708 14.5365 16.5573 13.9219 16.0781C13.401 15.6719 12.7188 15.4688 11.875 15.4688H8.89062V22.9219ZM15.8906 15.9531C16.1406 16.5156 16.2656 17.8177 16.2656 19.8594C16.2656 22.4427 16.1719 23.9583 15.9844 24.4062C16.2031 24.3646 16.4271 24.099 16.6562 23.6094C16.8854 23.1198 17.0469 22.6146 17.1406 22.0938C17.2344 21.5729 17.2969 21.2188 17.3281 21.0312C17.3698 20.8438 17.4271 20.6771 17.5 20.5312C17.6667 20.2188 17.9479 19.9948 18.3438 19.8594C17.7188 19.6615 17.349 19.2656 17.2344 18.6719C17.1302 18.0781 17.026 17.6198 16.9219 17.2969C16.8177 16.974 16.7083 16.7188 16.5938 16.5312C16.3958 16.1979 16.1615 16.0052 15.8906 15.9531ZM46.9614 22.2812C47.1905 21.8438 47.6124 21.625 48.227 21.625C48.6437 21.625 48.9666 21.7969 49.1958 22.1406C49.3833 22.4115 49.477 22.7448 49.477 23.1406C49.477 23.526 49.378 23.9167 49.1801 24.3125C48.9822 24.7083 48.7114 25.0677 48.3676 25.3906C48.0239 25.7135 47.628 26 47.1801 26.25C46.7426 26.5 46.2739 26.7083 45.7739 26.875C44.7426 27.2188 43.6697 27.3906 42.5551 27.3906C41.4405 27.3906 40.3937 27.2083 39.4145 26.8438C38.4458 26.4688 37.6124 25.9479 36.9145 25.2812C35.5499 23.9688 34.7166 22.1667 34.4145 19.875C34.3416 19.3646 34.2218 19 34.0551 18.7812C33.7426 18.3958 33.227 18.026 32.5083 17.6719C33.4145 17.2656 33.9926 16.6146 34.2426 15.7188C34.3155 15.4688 34.3728 15.2188 34.4145 14.9688C34.6749 13.1354 35.602 11.5729 37.1958 10.2812C38.7374 9.03125 40.4614 8.40625 42.3676 8.40625C44.3468 8.40625 46.0603 9.10417 47.5083 10.5C49.0083 11.9375 49.7583 13.7031 49.7583 15.7969C49.7583 15.8698 49.753 15.9427 49.7426 16.0156C49.7426 16.0885 49.7478 16.1562 49.7583 16.2188C49.7791 16.3542 49.8624 16.4323 50.0083 16.4531C50.1958 16.6927 50.2895 16.9479 50.2895 17.2188C50.2895 17.8438 49.9562 18.2135 49.2895 18.3281C49.1228 18.3594 48.8624 18.401 48.5083 18.4531L39.6958 19.8594V21.3594C39.6958 22.5677 40.0603 23.526 40.7895 24.2344C41.477 24.9115 42.3468 25.25 43.3989 25.25C44.5135 25.25 45.4093 25.0208 46.0864 24.5625C46.7218 24.125 47.0395 23.5521 47.0395 22.8438C47.0395 22.6771 47.0135 22.4896 46.9614 22.2812ZM44.227 17.2344V12.8594C44.227 12.1719 44.0916 11.6667 43.8208 11.3438C43.3416 10.7917 42.8676 10.5156 42.3989 10.5156C41.9301 10.5156 41.5395 10.5885 41.227 10.7344C40.9145 10.8698 40.6437 11.0885 40.4145 11.3906C39.9353 12.026 39.6958 13.0156 39.6958 14.3594V17.9688L44.227 17.2344ZM46.5395 16.8438V16.3594C46.5395 14.4219 46.378 13.25 46.0551 12.8438C45.9093 12.6667 45.7478 12.5365 45.5708 12.4531V17L46.5395 16.8438ZM37.1489 22.8594C37.2947 22.7448 37.3676 22.6146 37.3676 22.4688C37.3676 22.2396 37.3208 21.9479 37.227 21.5938C36.7999 19.9583 36.5864 18.8229 36.5864 18.1875C36.5864 17.5417 36.6072 17.0417 36.6489 16.6875C36.6905 16.3229 36.7478 15.9583 36.8208 15.5938C36.9458 14.8854 37.0812 14.2604 37.227 13.7188C37.3208 13.3646 37.3676 13.125 37.3676 13C37.3676 12.75 37.2947 12.5677 37.1489 12.4531C36.7114 12.974 36.378 13.6719 36.1489 14.5469C35.9197 15.4219 35.7322 16.1927 35.5864 16.8594C35.5343 17.1406 35.227 17.4115 34.6645 17.6719C35.227 17.9323 35.5343 18.1927 35.5864 18.4531C35.9718 20.2135 36.2895 21.3333 36.5395 21.8125C36.7895 22.2917 36.9926 22.6406 37.1489 22.8594ZM64.5478 26.8125C64.0686 27.1458 63.5217 27.3125 62.9071 27.3125C62.2925 27.3125 61.8446 27.1719 61.5634 26.8906C61.2925 26.599 61.1571 26.3229 61.1571 26.0625C61.1571 25.7188 61.2144 25.4688 61.329 25.3125C61.5582 25.4896 61.8498 25.5781 62.204 25.5781C62.8707 25.5781 63.303 25.2552 63.5009 24.6094V19.7344C63.5009 19.276 63.4019 18.9427 63.204 18.7344C62.9228 18.4115 62.3863 18.0573 61.5946 17.6719C62.3238 17.3385 62.7873 17.0729 62.9853 16.875C63.329 16.5312 63.5009 16.1094 63.5009 15.6094V13.3281C63.5009 12.4427 63.1988 11.9635 62.5946 11.8906C62.4175 11.8698 62.1936 11.8594 61.9228 11.8594C61.6519 11.8594 61.4019 11.9479 61.1728 12.125C61.0269 11.9271 60.954 11.724 60.954 11.5156C60.954 11.2969 61.0061 11.0573 61.1103 10.7969C61.2248 10.526 61.3915 10.2708 61.6103 10.0312C62.1623 9.46875 62.7978 9.1875 63.5165 9.1875C64.2457 9.1875 64.8498 9.30208 65.329 9.53125C65.9019 8.88542 66.5165 8.5625 67.1728 8.5625C68.2457 8.5625 68.7821 9.125 68.7821 10.25L68.7665 11.5469C69.6415 10.151 70.8603 9.22917 72.4228 8.78125C72.9332 8.63542 73.4592 8.5625 74.0009 8.5625C75.23 8.5625 76.2509 8.85938 77.0634 9.45312C77.8759 10.0469 78.4592 10.8906 78.8134 11.9844C79.5946 10.3698 80.8603 9.3125 82.6103 8.8125C83.1832 8.64583 83.829 8.5625 84.5478 8.5625C85.2769 8.5625 85.9592 8.70312 86.5946 8.98438C87.2405 9.25521 87.7873 9.64583 88.2353 10.1562C89.1415 11.2188 89.5946 12.6875 89.5946 14.5625L89.5478 15.6094C89.5478 16.1094 89.6571 16.4688 89.8759 16.6875C90.1988 17.0104 90.7248 17.3385 91.454 17.6719C90.6623 18.0573 90.1728 18.3542 89.9853 18.5625C89.6936 18.8854 89.5478 19.276 89.5478 19.7344V24.6094C89.7457 25.2552 90.178 25.5781 90.8446 25.5781C91.0946 25.5781 91.3342 25.4896 91.5634 25.3125C91.6259 25.3958 91.6936 25.4792 91.7665 25.5625C91.8498 25.6354 91.8915 25.8021 91.8915 26.0625C91.8915 26.3229 91.7509 26.599 91.4696 26.8906C91.1988 27.1719 90.7613 27.3125 90.1571 27.3125C89.5634 27.3125 89.0113 27.1458 88.5009 26.8125C88.0321 27.1458 87.5061 27.3125 86.9228 27.3125C86.3498 27.3125 85.8446 27.1562 85.4071 26.8438C85.0009 27.1562 84.5425 27.3125 84.0321 27.3125C83.5321 27.3125 83.1311 27.1823 82.829 26.9219C82.5269 26.6615 82.3759 26.2865 82.3759 25.7969C82.3759 25.5677 82.454 25.3854 82.6103 25.25C82.8498 25.4375 83.0894 25.5312 83.329 25.5312C83.7873 25.5312 84.1155 25.276 84.3134 24.7656V15.4531C84.3134 13.0052 83.4228 11.7812 81.6415 11.7812C81.1311 11.7812 80.6311 12.0781 80.1415 12.6719C79.6519 13.2552 79.3342 13.9635 79.1884 14.7969L79.1415 24.7656C79.3394 25.276 79.6675 25.5312 80.1259 25.5312C80.3655 25.5312 80.605 25.4375 80.8446 25.25C81.0009 25.3854 81.079 25.6354 81.079 26C81.079 26.3542 80.928 26.6615 80.6259 26.9219C80.3238 27.1823 79.9175 27.3125 79.4071 27.3125C78.8967 27.3125 78.4384 27.1562 78.0321 26.8438C77.5842 27.1562 77.0738 27.3125 76.5009 27.3125C75.9384 27.3125 75.4384 27.1562 75.0009 26.8438C74.5946 27.1562 74.1363 27.3125 73.6259 27.3125C73.1259 27.3125 72.7248 27.1823 72.4228 26.9219C72.1207 26.6615 71.9696 26.2865 71.9696 25.7969C71.9696 25.5677 72.0478 25.3854 72.204 25.25C72.4436 25.4375 72.6832 25.5312 72.9228 25.5312C73.3811 25.5312 73.7092 25.276 73.9071 24.7656V15.4531C73.9071 13.5052 73.4332 12.3438 72.4853 11.9688C72.1832 11.8438 71.8498 11.7812 71.4853 11.7812C70.7873 11.7812 70.1832 12.0833 69.6728 12.6875C69.1936 13.25 68.8915 13.9583 68.7665 14.8125L68.7353 24.7656C68.9332 25.276 69.2613 25.5312 69.7196 25.5312C69.9592 25.5312 70.1988 25.4375 70.4384 25.25C70.6259 25.4062 70.7196 25.6615 70.7196 26.0156C70.7196 26.3594 70.5582 26.6615 70.2353 26.9219C69.9228 27.1823 69.5061 27.3125 68.9853 27.3125C68.4748 27.3125 68.0217 27.1615 67.6259 26.8594C67.2092 27.1615 66.7144 27.3125 66.1415 27.3125C65.5686 27.3125 65.0373 27.1458 64.5478 26.8125ZM85.3446 12.4531C85.6571 13.2135 85.8134 14.6979 85.8134 16.9062V22.8594C86.3342 22.6615 86.6207 21.9792 86.6728 20.8125C86.7353 19.6458 86.7665 18.6146 86.7665 17.7188C86.7665 16.8125 86.7405 16.0573 86.6884 15.4531C86.6363 14.849 86.553 14.3438 86.4384 13.9375C86.23 13.2083 85.8655 12.7135 85.3446 12.4531ZM74.9384 12.4531C75.2509 13.2135 75.4071 14.6979 75.4071 16.9062V22.8594C75.928 22.6615 76.2144 21.9792 76.2665 20.8125C76.329 19.6458 76.3603 18.6146 76.3603 17.7188C76.3603 16.8125 76.3342 16.0573 76.2821 15.4531C76.23 14.849 76.1467 14.3438 76.0321 13.9375C75.8238 13.2083 75.4592 12.7135 74.9384 12.4531ZM65.0009 22.8594C65.4905 22.5469 65.7665 21.8958 65.829 20.9062C65.8707 20.1562 65.8915 19.4844 65.8915 18.8906V16.9062C65.8915 15.3646 65.8498 14.375 65.7665 13.9375C65.6207 13.1875 65.3655 12.6927 65.0009 12.4531V13.4688C65.0009 15.2292 64.9592 16.2656 64.8759 16.5781C64.803 16.8802 64.678 17.1094 64.5009 17.2656C64.3342 17.4219 64.0842 17.5573 63.7509 17.6719C64.3759 17.8906 64.73 18.151 64.8134 18.4531C64.9384 18.9531 65.0009 20.0833 65.0009 21.8438V22.8594ZM141.205 4.85938C140.934 4.68229 140.611 4.59375 140.236 4.59375C139.497 4.59375 138.83 5 138.236 5.8125C136.653 10.0312 135.835 12.2917 135.783 12.5938C135.731 12.8958 135.705 13.1146 135.705 13.25C135.705 13.8958 136.059 14.3281 136.767 14.5469C135.997 14.8594 135.465 15.1719 135.174 15.4844C134.715 15.9948 134.304 16.776 133.939 17.8281L131.08 25.6406C130.549 27.151 130.158 27.9896 129.908 28.1562C129.814 28.2083 129.705 28.2344 129.58 28.2344C129.455 28.2344 129.351 28.1979 129.267 28.125L124.189 16.7656C123.981 16.276 123.71 15.901 123.377 15.6406C122.835 15.224 122.142 14.8594 121.299 14.5469C122.205 14.0469 122.648 13.5833 122.627 13.1562C122.627 12.9583 122.543 12.6406 122.377 12.2031L119.642 5.17188C119.09 4.78646 118.585 4.59375 118.127 4.59375C117.793 4.59375 117.491 4.68229 117.221 4.85938C117.106 4.77604 117.049 4.61979 117.049 4.39062C117.049 4.16146 117.085 3.95312 117.158 3.76562C117.231 3.56771 117.346 3.39583 117.502 3.25C117.835 2.9375 118.314 2.78125 118.939 2.78125C119.564 2.78125 120.116 2.94792 120.596 3.28125C121.127 2.94792 121.747 2.78125 122.455 2.78125C123.174 2.78125 123.793 2.94271 124.314 3.26562C124.866 2.94271 125.372 2.78125 125.83 2.78125C126.288 2.78125 126.663 2.81771 126.955 2.89062C127.247 2.95312 127.502 3.05208 127.721 3.1875C128.189 3.45833 128.434 3.83333 128.455 4.3125C128.455 4.60417 128.398 4.78646 128.283 4.85938C128.002 4.68229 127.715 4.59375 127.424 4.59375C126.767 4.59375 126.257 4.71875 125.892 4.96875L131.017 19.5938L135.83 5.67188C135.778 5.31771 135.637 5.03646 135.408 4.82812C135.189 4.61979 134.851 4.51562 134.392 4.51562C133.934 4.51562 133.554 4.60417 133.252 4.78125C133.148 4.625 133.096 4.38021 133.096 4.04688C133.096 3.71354 133.236 3.42188 133.517 3.17188C133.799 2.91146 134.184 2.78125 134.674 2.78125C135.174 2.78125 135.616 2.90104 136.002 3.14062C136.335 2.90104 136.752 2.78125 137.252 2.78125C137.752 2.78125 138.163 2.89583 138.486 3.125C138.944 2.89583 139.403 2.78125 139.861 2.78125C140.319 2.78125 140.684 2.93229 140.955 3.23438C141.236 3.52604 141.377 3.90625 141.377 4.375C141.377 4.61458 141.319 4.77604 141.205 4.85938ZM135.814 6.34375C135.793 6.40625 135.783 6.44792 135.783 6.46875L135.814 6.34375ZM123.096 7.46875C122.866 7.63542 122.752 7.85417 122.752 8.125C122.752 8.38542 122.757 8.58333 122.767 8.71875C122.788 8.85417 122.83 9.03125 122.892 9.25C122.955 9.45833 123.049 9.72917 123.174 10.0625L124.033 12.2812C124.241 12.8229 124.356 13.2292 124.377 13.5C124.429 13.9583 124.137 14.3073 123.502 14.5469C123.929 14.6302 124.278 14.7344 124.549 14.8594C124.83 14.974 125.08 15.2708 125.299 15.75C125.517 16.2188 125.804 16.8958 126.158 17.7812L127.471 20.9688C127.866 21.9375 128.304 22.5208 128.783 22.7188C128.918 22.7812 129.054 22.8281 129.189 22.8594L123.096 7.46875ZM155.182 6.32812C154.651 6.32812 154.135 6.1875 153.635 5.90625C153.145 5.625 152.77 5.25 152.51 4.78125C152.229 4.30208 151.854 3.9375 151.385 3.6875C151.239 3.61458 151.072 3.53646 150.885 3.45312L151.416 3.125C151.916 2.8125 152.286 2.43229 152.526 1.98438C152.765 1.53646 153.125 1.1875 153.604 0.9375C154.093 0.677083 154.619 0.546875 155.182 0.546875C156.349 0.546875 157.192 1.03646 157.713 2.01562C158.067 2.66146 158.614 3.14062 159.354 3.45312C159.197 3.54688 159.041 3.63021 158.885 3.70312C158.739 3.77604 158.599 3.85938 158.463 3.95312C158.161 4.16146 157.89 4.46875 157.651 4.875C157.421 5.28125 157.083 5.625 156.635 5.90625C156.197 6.1875 155.713 6.32812 155.182 6.32812ZM154.354 4.42188C154.291 4.30729 154.239 4.17708 154.197 4.03125C154.166 3.875 154.151 3.60417 154.151 3.21875C154.151 2.83333 154.349 2.34375 154.744 1.75C154.359 1.75 154.088 1.82292 153.932 1.96875C153.776 2.10417 153.656 2.22396 153.572 2.32812C153.5 2.42188 153.432 2.52083 153.369 2.625C153.317 2.71875 153.25 2.82292 153.166 2.9375C152.968 3.21875 152.807 3.39062 152.682 3.45312C152.849 3.54688 153 3.69792 153.135 3.90625C153.281 4.10417 153.447 4.3125 153.635 4.53125C153.916 4.875 154.286 5.04688 154.744 5.04688C154.682 4.93229 154.614 4.82812 154.541 4.73438C154.479 4.63021 154.416 4.52604 154.354 4.42188ZM153.619 26.8125C153.14 27.1458 152.593 27.3125 151.979 27.3125C151.375 27.3125 150.921 27.1771 150.619 26.9062C150.328 26.6354 150.182 26.375 150.182 26.125C150.182 25.7812 150.255 25.5104 150.401 25.3125C150.63 25.4896 150.968 25.5781 151.416 25.5781C151.864 25.5781 152.25 25.2865 152.572 24.7031V19.7188C152.572 19.2604 152.479 18.9271 152.291 18.7188C151.989 18.4062 151.447 18.0573 150.666 17.6719C151.395 17.3385 151.859 17.0729 152.057 16.875C152.401 16.5312 152.572 16.1094 152.572 15.6094V13.3281C152.572 12.4427 152.27 11.9635 151.666 11.8906C151.489 11.8698 151.265 11.8594 150.994 11.8594C150.724 11.8594 150.474 11.9479 150.244 12.125C150.099 11.9271 150.026 11.724 150.026 11.5156C150.026 11.2969 150.078 11.0573 150.182 10.7969C150.296 10.526 150.468 10.2708 150.697 10.0312C151.239 9.46875 151.864 9.1875 152.572 9.1875C153.281 9.1875 153.921 9.3125 154.494 9.5625C155.005 8.89583 155.588 8.5625 156.244 8.5625C157.317 8.5625 157.854 9.125 157.854 10.25V15.6094C157.854 16.1094 157.963 16.4688 158.182 16.6875C158.505 17.0104 159.031 17.3385 159.76 17.6719C158.979 18.0573 158.489 18.349 158.291 18.5469C158 18.8698 157.854 19.2604 157.854 19.7188V24.75C158.197 25.3021 158.588 25.5781 159.026 25.5781C159.463 25.5781 159.796 25.4896 160.026 25.3125C160.171 25.5104 160.244 25.7604 160.244 26.0625C160.244 26.3542 160.093 26.6354 159.791 26.9062C159.5 27.1771 159.057 27.3125 158.463 27.3125C157.869 27.3125 157.317 27.1458 156.807 26.8125C156.38 27.1458 155.864 27.3125 155.26 27.3125C154.656 27.3125 154.109 27.1458 153.619 26.8125ZM154.963 19.4062C154.974 19.0521 154.979 18.7552 154.979 18.5156C154.989 18.276 154.994 18.0833 154.994 17.9375V17.5156C154.994 17.3594 154.989 17.1562 154.979 16.9062C154.979 16.6562 154.974 16.3802 154.963 16.0781C154.963 15.776 154.958 15.4792 154.947 15.1875C154.906 14.4688 154.854 13.974 154.791 13.7031C154.666 13.099 154.427 12.6823 154.072 12.4531V13.4688C154.072 15.2292 154.031 16.2656 153.947 16.5781C153.875 16.8802 153.75 17.1094 153.572 17.2656C153.406 17.4115 153.156 17.5417 152.822 17.6562C153.447 17.875 153.802 18.1406 153.885 18.4531C154.01 18.9531 154.072 20.0833 154.072 21.8438V22.8594C154.552 22.5469 154.822 21.9062 154.885 20.9375C154.937 20.2708 154.963 19.7604 154.963 19.4062ZM173.956 26.8125C173.477 27.1458 172.93 27.3125 172.315 27.3125C171.701 27.3125 171.253 27.1719 170.971 26.8906C170.701 26.599 170.565 26.3229 170.565 26.0625C170.565 25.7188 170.622 25.4688 170.737 25.3125C170.966 25.4896 171.258 25.5781 171.612 25.5781C172.279 25.5781 172.711 25.2552 172.909 24.6094V19.75C172.909 19.2917 172.81 18.9583 172.612 18.75C172.31 18.4062 171.773 18.0469 171.003 17.6719C171.732 17.3385 172.195 17.0729 172.393 16.875C172.737 16.5312 172.909 16.1094 172.909 15.6094V13.3281C172.909 12.4427 172.607 11.9635 172.003 11.8906C171.826 11.8698 171.602 11.8594 171.331 11.8594C171.06 11.8594 170.81 11.9479 170.581 12.125C170.435 11.9271 170.362 11.724 170.362 11.5156C170.362 11.2969 170.414 11.0573 170.518 10.7969C170.633 10.526 170.799 10.2708 171.018 10.0312C171.57 9.46875 172.206 9.1875 172.924 9.1875C173.654 9.1875 174.258 9.30208 174.737 9.53125C175.31 8.88542 175.893 8.5625 176.487 8.5625C177.081 8.5625 177.492 8.70312 177.721 8.98438C177.951 9.25521 178.065 9.67708 178.065 10.25V11.7188C178.607 10.75 179.346 9.98438 180.284 9.42188C181.221 8.84896 182.216 8.5625 183.268 8.5625C184.32 8.5625 185.164 8.70312 185.799 8.98438C186.445 9.25521 186.977 9.64583 187.393 10.1562C188.206 11.1667 188.612 12.6354 188.612 14.5625V15.5938C188.612 16.0938 188.721 16.4531 188.94 16.6719C189.263 17.0052 189.789 17.3385 190.518 17.6719C189.737 18.0573 189.247 18.349 189.049 18.5469C188.758 18.8698 188.612 19.2604 188.612 19.7188V24.6094C188.81 25.2552 189.242 25.5781 189.909 25.5781C190.263 25.5781 190.555 25.4896 190.784 25.3125C190.898 25.4688 190.956 25.6979 190.956 26C190.956 26.3021 190.815 26.599 190.534 26.8906C190.263 27.1719 189.841 27.3125 189.268 27.3125C188.695 27.3125 188.174 27.151 187.706 26.8281C187.289 27.151 186.799 27.3125 186.237 27.3125C185.685 27.3125 185.19 27.1562 184.753 26.8438C184.294 27.1562 183.805 27.3125 183.284 27.3125C182.763 27.3125 182.352 27.1823 182.049 26.9219C181.747 26.6615 181.596 26.2865 181.596 25.7969C181.596 25.5677 181.674 25.3854 181.831 25.25C182.07 25.4375 182.31 25.5312 182.549 25.5312C183.008 25.5312 183.336 25.276 183.534 24.7656V15.4531C183.534 13.4323 183.039 12.2604 182.049 11.9375C181.727 11.8333 181.378 11.7812 181.003 11.7812C180.628 11.7812 180.279 11.8594 179.956 12.0156C179.633 12.1615 179.341 12.3698 179.081 12.6406C178.508 13.2448 178.169 13.9635 178.065 14.7969V24.7656C178.263 25.276 178.591 25.5312 179.049 25.5312C179.289 25.5312 179.529 25.4375 179.768 25.25C179.924 25.3854 180.003 25.6354 180.003 26C180.003 26.3542 179.852 26.6615 179.549 26.9219C179.247 27.1823 178.846 27.3125 178.346 27.3125C177.857 27.3125 177.409 27.1562 177.003 26.8438C176.607 27.1562 176.122 27.3125 175.549 27.3125C174.977 27.3125 174.445 27.1458 173.956 26.8125ZM185.034 22.8594C185.555 22.6615 185.841 21.9792 185.893 20.8125C185.956 19.6458 185.987 18.5469 185.987 17.5156C185.987 16.4844 185.945 15.6354 185.862 14.9688C185.779 14.2917 185.659 13.7656 185.503 13.3906C185.346 13.0052 185.159 12.7292 184.94 12.5625C184.732 12.3854 184.503 12.2344 184.253 12.1094C184.648 13.0469 184.878 13.901 184.94 14.6719C185.003 15.4427 185.034 16.1875 185.034 16.9062V22.8594ZM175.299 19.4062C175.31 19.0625 175.315 18.776 175.315 18.5469C175.326 18.3073 175.331 18.1146 175.331 17.9688C175.331 17.8229 175.331 17.6771 175.331 17.5312C175.331 17.375 175.326 17.1719 175.315 16.9219C175.315 16.6719 175.31 16.3958 175.299 16.0938C175.299 15.7917 175.289 15.4948 175.268 15.2031C175.237 14.4844 175.19 13.9896 175.128 13.7188C175.003 13.1146 174.763 12.6979 174.409 12.4688V13.4844C174.409 15.2344 174.367 16.2656 174.284 16.5781C174.211 16.8802 174.086 17.1094 173.909 17.2656C173.742 17.4219 173.492 17.5573 173.159 17.6719C173.784 17.8906 174.138 18.151 174.221 18.4531C174.346 18.9531 174.409 20.0781 174.409 21.8281V22.8438C174.888 22.5312 175.164 21.8958 175.237 20.9375C175.279 20.2604 175.299 19.75 175.299 19.4062ZM216.386 27.3125C215.323 27.3125 214.495 26.7396 213.902 25.5938C213.162 26.4479 212.172 27.0104 210.933 27.2812C210.568 27.3542 210.209 27.3906 209.855 27.3906C207.667 27.3906 205.969 26.6979 204.761 25.3125C203.657 24.0312 203.037 22.2188 202.902 19.875C202.881 19.4167 202.777 19.0677 202.589 18.8281C202.277 18.4323 201.745 18.0521 200.995 17.6875C202.224 17.125 202.865 16.2604 202.917 15.0938C202.969 13.9271 203.172 12.9323 203.527 12.1094C203.891 11.276 204.375 10.5938 204.98 10.0625C206.136 9.0625 207.75 8.5625 209.823 8.5625C210.959 8.5625 211.943 8.85417 212.777 9.4375C213.058 9.63542 213.297 9.86458 213.495 10.125V6.76562C213.495 5.57812 213.011 4.98438 212.042 4.98438C211.688 4.98438 211.396 5.07292 211.167 5.25C211.021 5.05208 210.948 4.84896 210.948 4.64062C210.948 4.42188 211 4.21354 211.105 4.01562C211.219 3.81771 211.391 3.63542 211.62 3.46875C212.11 3.11458 212.73 2.9375 213.48 2.9375C214.23 2.9375 214.813 2.98438 215.23 3.07812C215.803 2.35938 216.448 2 217.167 2C218.24 2 218.777 2.5625 218.777 3.6875V15.6094C218.777 16.401 219.412 17.0885 220.683 17.6719C219.412 18.2448 218.777 18.9271 218.777 19.7188V24.4062C219.079 25.1875 219.511 25.5781 220.073 25.5781C220.428 25.5781 220.719 25.4896 220.948 25.3125C221.094 25.5104 221.167 25.7604 221.167 26.0625C221.167 26.3542 221.016 26.6354 220.714 26.9062C220.422 27.1771 219.98 27.3125 219.386 27.3125C218.792 27.3125 218.24 27.1458 217.73 26.8125C217.282 27.1458 216.834 27.3125 216.386 27.3125ZM214.995 22.8594C215.516 22.6615 215.797 22.0417 215.839 21C215.849 20.7604 215.855 20.4688 215.855 20.125C215.865 19.7708 215.875 19.3802 215.886 18.9531C215.896 18.526 215.902 18.0938 215.902 17.6562L215.933 16.4062C215.933 16 215.933 15.6458 215.933 15.3438C215.943 15.0312 215.948 14.7865 215.948 14.6094V14.375C215.948 14.3438 215.943 14.1979 215.933 13.9375C215.933 13.6667 215.928 13.3385 215.917 12.9531C215.917 12.5573 215.912 12.1354 215.902 11.6875L215.87 10.375C215.849 9.41667 215.813 8.80729 215.761 8.54688C215.678 8.02604 215.422 7.66667 214.995 7.46875V22.8594ZM210.683 10.8438C209.016 10.8438 208.183 12.0677 208.183 14.5156V21.3594C208.183 23.2656 208.813 24.4479 210.073 24.9062C210.428 25.0417 210.777 25.1094 211.12 25.1094C211.474 25.1094 211.792 25.0417 212.073 24.9062C212.365 24.7604 212.615 24.5729 212.823 24.3438C213.271 23.8333 213.495 23.224 213.495 22.5156V14.5156C213.495 12.599 212.912 11.4375 211.745 11.0312C211.402 10.9062 211.047 10.8438 210.683 10.8438ZM205.636 22.8594C205.782 22.7448 205.855 22.6146 205.855 22.4688C205.855 22.2396 205.808 21.9479 205.714 21.5938C205.287 19.9583 205.073 18.8281 205.073 18.2031C205.073 17.5677 205.094 17.0677 205.136 16.7031C205.178 16.3385 205.235 15.9792 205.308 15.625C205.443 14.875 205.579 14.2396 205.714 13.7188C205.808 13.3646 205.855 13.125 205.855 13C205.855 12.75 205.782 12.5677 205.636 12.4531C205.198 12.974 204.865 13.6771 204.636 14.5625C204.407 15.4479 204.219 16.224 204.073 16.8906C204.021 17.1615 203.714 17.4271 203.152 17.6875C203.714 17.9479 204.021 18.2135 204.073 18.4844C204.459 20.2448 204.777 21.3594 205.027 21.8281C205.277 22.2969 205.48 22.6406 205.636 22.8594ZM235.785 25.25C235.129 24.5833 234.608 23.7917 234.222 22.875C233.847 21.9583 233.618 21.1719 233.535 20.5156C233.451 19.8594 233.379 19.4375 233.316 19.25C233.264 19.0625 233.17 18.8854 233.035 18.7188C232.764 18.375 232.269 18.026 231.55 17.6719C232.457 17.2656 233.035 16.6146 233.285 15.7188C233.358 15.4688 233.415 15.2188 233.457 14.9688C233.727 13.1042 234.629 11.5469 236.16 10.2969C237.691 9.03646 239.477 8.40625 241.519 8.40625C243.644 8.40625 245.472 9.04167 247.004 10.3125C248.493 11.5521 249.373 13.1042 249.644 14.9688C249.738 15.625 249.879 16.1042 250.066 16.4062C250.42 16.9583 250.915 17.3802 251.55 17.6719C250.842 18.0156 250.384 18.3177 250.175 18.5781C249.894 18.9427 249.717 19.375 249.644 19.875C249.311 22.3333 248.457 24.2031 247.082 25.4844C245.707 26.7552 243.873 27.3906 241.582 27.3906C239.123 27.3906 237.191 26.6771 235.785 25.25ZM244.207 14.5156C244.207 11.9115 243.321 10.6094 241.55 10.6094C239.78 10.6094 238.894 11.9115 238.894 14.5156V21.4375C238.894 23.9375 239.774 25.1875 241.535 25.1875C243.316 25.1875 244.207 23.9375 244.207 21.4375V14.5156ZM245.707 22.8594C246.227 22.6615 246.514 21.9792 246.566 20.8125C246.629 19.6458 246.66 18.7812 246.66 18.2188C246.66 17.6458 246.655 17.1719 246.644 16.7969C246.644 16.4115 246.639 16.0156 246.629 15.6094C246.587 14.0885 246.467 13.2031 246.269 12.9531C246.071 12.7031 245.884 12.5365 245.707 12.4531V22.8594ZM236.347 22.8594C236.493 22.7448 236.566 22.6146 236.566 22.4688C236.566 22.2396 236.519 21.9479 236.425 21.5938C235.998 19.9583 235.785 18.8229 235.785 18.1875C235.785 17.5417 235.806 17.0417 235.847 16.6875C235.889 16.3229 235.941 15.9583 236.004 15.5938C236.139 14.8854 236.28 14.2604 236.425 13.7188C236.519 13.3646 236.566 13.125 236.566 13C236.566 12.75 236.493 12.5677 236.347 12.4531C235.91 12.974 235.576 13.6719 235.347 14.5469C235.118 15.4219 234.931 16.1927 234.785 16.8594C234.733 17.1406 234.425 17.4115 233.863 17.6719C234.425 17.9323 234.733 18.1927 234.785 18.4531C235.17 20.2135 235.488 21.3333 235.738 21.8125C235.988 22.2917 236.191 22.6406 236.347 22.8594ZM273.246 2.75C272.986 2.57292 272.71 2.48438 272.418 2.48438C272.137 2.48438 271.918 2.51562 271.762 2.57812C271.616 2.64062 271.501 2.73438 271.418 2.85938C271.283 3.04688 271.178 3.42188 271.105 3.98438L269.652 17.9844C269.559 18.5469 269.366 18.9688 269.074 19.25C268.783 19.5312 268.47 19.6719 268.137 19.6719C267.814 19.6719 267.496 19.5208 267.184 19.2188C266.882 18.9167 266.689 18.5 266.605 17.9688L264.98 3.98438C264.908 3.42188 264.819 3.0625 264.715 2.90625C264.517 2.625 264.21 2.48438 263.793 2.48438C263.387 2.48438 263.069 2.57292 262.84 2.75C262.725 2.60417 262.668 2.375 262.668 2.0625C262.668 1.75 262.798 1.45312 263.059 1.17188C263.329 0.890625 263.73 0.75 264.262 0.75C264.793 0.75 265.335 0.828125 265.887 0.984375C266.533 0.619792 267.257 0.4375 268.059 0.4375C268.861 0.4375 269.569 0.619792 270.184 0.984375C270.694 0.828125 271.225 0.75 271.777 0.75C272.34 0.75 272.751 0.895833 273.012 1.1875C273.283 1.46875 273.418 1.73958 273.418 2C273.418 2.34375 273.361 2.59375 273.246 2.75ZM267.684 17.0625C267.913 16.9479 268.027 16.1719 268.027 14.7344C268.027 14.1198 268.001 13.4688 267.949 12.7812L267.809 10.625C267.538 6.69792 267.21 4.35417 266.824 3.59375C266.699 3.35417 266.559 3.27604 266.402 3.35938L267.684 17.0625ZM264.043 24.4375C264.626 24.0729 264.991 23.7812 265.137 23.5625C265.293 23.3333 265.418 23.1302 265.512 22.9531C265.762 22.4844 266.126 22.1198 266.605 21.8594C267.095 21.5885 267.621 21.4531 268.184 21.4531C269.35 21.4531 270.194 21.9427 270.715 22.9219C271.132 23.6927 271.626 24.1979 272.199 24.4375C272.043 24.5312 271.897 24.6146 271.762 24.6875C271.626 24.7604 271.501 24.8438 271.387 24.9375C271.147 25.1354 270.908 25.4427 270.668 25.8594C270.428 26.2656 270.085 26.625 269.637 26.9375C269.199 27.2396 268.715 27.3906 268.184 27.3906C267.652 27.3906 267.137 27.2396 266.637 26.9375C266.147 26.625 265.772 26.2344 265.512 25.7656C265.21 25.2448 264.934 24.9167 264.684 24.7812C264.444 24.6354 264.23 24.5208 264.043 24.4375ZM267.512 25.4062C267.449 25.2917 267.397 25.1615 267.355 25.0156C267.324 24.8594 267.309 24.5781 267.309 24.1719C267.309 23.7552 267.507 23.25 267.902 22.6562C267.673 22.6562 267.47 22.7031 267.293 22.7969C267.116 22.8802 266.96 23.0104 266.824 23.1875C266.689 23.3646 266.59 23.5052 266.527 23.6094C266.475 23.7031 266.408 23.8021 266.324 23.9062C266.126 24.1979 265.965 24.375 265.84 24.4375C266.007 24.5312 266.158 24.6823 266.293 24.8906C266.439 25.0885 266.605 25.3021 266.793 25.5312C267.074 25.8646 267.444 26.0312 267.902 26.0312C267.84 25.9167 267.772 25.8125 267.699 25.7188C267.637 25.6146 267.574 25.5104 267.512 25.4062Z" fill="#B58934"/>
</svg>
